# AST/ASF file generated using VICON BodyLanguage
# -----------------------------------------------
:version 1.10
:name VICON
:units
  mass 1.0
  length 0.45
  angle deg
:documentation
   .ast/.asf automatically generated from VICON data using
   VICON BodyBuilder and BodyLanguage model FoxedUp or BRILLIANT.MOD
:root
   order TX TY TZ RX RY RZ
   axis XYZ
   position 0 0 0  
   orientation 0 0 0 
:bonedata
  begin
     id 1 
     name lhipjoint
     direction 0.543289 -0.788407 0.288535 
     length 2.57127 
     axis 0 0 0  XYZ
  end
  begin
     id 2 
     name lfemur
     direction 0.34202 -0.939693 0  
     length 8.47298  
     axis 0 0 20  XYZ
    dof rx ry rz
    limits (-160.0 20.0)
           (-70.0 70.0)
           (-60.0 70.0)
  end
  begin
     id 3 
     name ltibia
     direction 0.34202 -0.939693 0   
     length 8.13367   
     axis 0 0 20   XYZ
    dof rx
    limits (-10.0 170.0)
  end
  begin
     id 4 
     name lfoot
     direction 0.114037 -0.313314 0.942778   
     length 2.67113   
     axis -90 7.62852e-016 20   XYZ
    dof rx rz
    limits (-45.0 90.0)
           (-70.0 20.0)
  end
  begin
     id 5 
     name ltoes
     direction 1.536e-011 -4.21847e-011 1   
     length 1.32217   
     axis -90 7.62852e-016 20   XYZ
    dof rx
    limits (-90.0 20.0)
  end
  begin
     id 6 
     name rhipjoint
     direction -0.571293 -0.770752 0.282074   
     length 2.63017  
     axis 0 0 0  XYZ 
  end
  begin
     id 7 
     name rfemur
     direction -0.34202 -0.939693 0   
     length 8.60885   
     axis 0 0 -20   XYZ
    dof rx ry rz
    limits (-160.0 20.0)
           (-70.0 70.0)
           (-70.0 60.0)
  end
  begin
     id 8 
     name rtibia
     direction -0.34202 -0.939693 0   
     length 8.07673   
     axis 0 0 -20   XYZ
    dof rx
    limits (-10.0 170.0)
 end
 begin
     id 9 
     name rfoot
     direction -0.121336 -0.333368 0.934956   
     length 2.81602  
     axis -90 -7.62852e-016 -20   XYZ
    dof rx rz
    limits (-45.0 90.0)
           (-20.0 70.0)
  end
  begin
     id 10 
     name rtoes
     direction -1.53491e-011 -4.21808e-011 1   
     length 1.38905   
     axis -90 -7.62852e-016 -20   XYZ
    dof rx
    limits (-90.0 20.0)
  end
  begin
     id 11 
     name lowerback
     direction 0.0136776 0.999869 -0.00861835   
     length 2.14087   
     axis 0 0 0   XYZ
    dof rx ry rz
    limits (-20.0 45.0)
           (-30.0 30.0)
           (-30.0 30.0)
  end
  begin
     id 12 
     name upperback
     direction -0.00789158 0.999804 0.0181308   
     length 2.14151   
     axis 0 0 0   XYZ
    dof rx ry rz
    limits (-20.0 45.0)
           (-30.0 30.0)
           (-30.0 30.0)
  end
  begin
     id 13 
     name thorax
     direction -0.0135231 0.999666 0.0220247   
     length 2.13644   
     axis 0 0 0   XYZ
    dof rx ry rz
    limits (-20.0 45.0)
           (-30.0 30.0)
           (-30.0 30.0)
  end
  begin
     id 14 
     name lowerneck
     direction -0.0392259 0.997317 0.0618018   
     length 1.65045   
     axis 0 0 0   XYZ
    dof rx ry rz
    limits (-20.0 45.0)
           (-30.0 30.0)
           (-30.0 30.0)
  end
  begin
     id 15 
     name upperneck
     direction 0.0765547 0.994276 -0.0745319   
     length 1.66045   
     axis 0 0 0   XYZ
    dof rx ry rz
    limits (-20.0 45.0)
           (-30.0 30.0)
           (-30.0 30.0)
  end
  begin
     id 16
     name head
     direction 0.0241564 0.999031 -0.036785  
     length 1.66594  
     axis 0 0 0   XYZ
    dof rx ry rz
    limits (-20.0 45.0)
           (-30.0 30.0)
           (-30.0 30.0)
  end
  begin
     id 17 
     name lclavicle
     direction 0.967398 0.249018 0.0461573  
     length 3.75176  
     axis 0 0 0   XYZ
    dof ry rz
    limits (-20.0 10.0)
           (0.0 20.0)
  end
  begin
     id 18 
     name lhumerus
     direction 1 -4.48963e-011 -3.05005e-027   
     length 5.93342   
     axis 180 -30 -90   XYZ
    dof rx ry rz
    limits (-60.0 90.0)
           (-90.0 90.0)
           (-90.0 90.0)
  end
  begin
     id 19
     name lradius
     direction 1 -4.48957e-011 1.07006e-026   
     length 3.94763   
     axis 180 -30 -90   XYZ
    dof rx
    limits (-10.0 170.0)
  end
  begin
     id 20
     name lwrist
     direction 1 -4.48978e-011 1.92422e-026   
     length 1.97382   
     axis -1.18182e-014 90 90   XYZ
    dof ry
    limits (-180.0 0.0)
 end
  begin
     id 21 
     name lhand
     direction 1 -4.48931e-011 3.84844e-026   
     length 0.560187   
     axis -2.45563e-014 90 90   XYZ
    dof rx rz
    limits (-90.0 90.0)
           (-45.0 45.0)
  end
  begin
     id 22 
     name lfingers
     direction 1 -4.48952e-011 7.69687e-026   
     length 0.451637   
     axis -4.91126e-014 90 90   XYZ
    dof rx
    limits (0.0 90.0)
  end
  begin
     id 23
     name lthumb
     direction 0.707107 -6.34901e-011 0.707107   
     length 0.648463   
     axis -90 45 2.85299e-015   XYZ
    dof rx rz
    limits (-45.0 45.0)
           (-45.0 45.0)
  end
  begin
     id 24 
     name rclavicle
     direction -0.965946 0.258716 0.00371831   
     length 3.63667  
     axis 0 0 0   XYZ 
    dof ry rz
    limits (-10.0 20.0)
           (-20.0 0.0)
  end
  begin
     id 25 
     name rhumerus
     direction -1 -4.48966e-011 -1.78361e-028  
     length 6.28647   
     axis 180 30 90   XYZ
    dof rx ry rz
    limits (-90.0 60.0)
           (-90.0 90.0)
           (-90.0 90.0)
  end
  begin
     id 26 
     name rradius
     direction -1 -4.48961e-011 1.05248e-026   
     length 3.81645   
     axis 180 30 90   XYZ
    dof rx
    limits (-10.0 170.0)
  end
  begin
     id 27 
     name rwrist
     direction -1 -4.48979e-011 1.92422e-026   
     length 1.90822   
     axis -1.18182e-014 -90 -90   XYZ
    dof ry
    limits (-180.0 0.0)
  end
  begin
     id 28
     name rhand
     direction -1 -4.48937e-011 3.84844e-026   
     length 0.646185   
     axis -2.45563e-014 -90 -90   XYZ
    dof rx rz
    limits (-90.0 90.0)
           (-45.0 45.0)
  end
  begin
     id 29
     name rfingers
     direction -1 -4.48953e-011 7.69687e-026   
     length 0.520971   
     axis -4.91126e-014 -90 -90   XYZ
    dof rx
    limits (0.0 90.0)
  end
  begin
     id 30
     name rthumb
     direction -0.707107 -6.3494e-011 0.707107   
     length 0.748013   
     axis -90 -45 -2.85299e-015   XYZ
    dof rx rz
    limits (-45.0 45.0)
           (-45.0 45.0)
  end
:hierarchy
  begin
    root lhipjoint rhipjoint lowerback
    lhipjoint lfemur
    lfemur ltibia
    ltibia lfoot
    lfoot ltoes
    rhipjoint rfemur
    rfemur rtibia
    rtibia rfoot
    rfoot rtoes
    lowerback upperback
    upperback thorax
    thorax lowerneck lclavicle rclavicle
    lowerneck upperneck
    upperneck head
    lclavicle lhumerus
    lhumerus lradius
    lradius lwrist
    lwrist lhand lthumb
    lhand lfingers
    rclavicle rhumerus
    rhumerus rradius
    rradius rwrist
    rwrist rhand rthumb
    rhand rfingers
  end

#!OML:ASF H:\HAZMAT1\Patient Classification 1\Patient 3\Session 1\dancer.ASF
:FULLY-SPECIFIED
:DEGREES
1
upperback -5.940290 6.141990 5.886390
rfoot 32.519501 -35.748199
lradius 25.872101
lthumb 20.781500 45.365700
rradius 29.009600
lwrist 13.302900
rhand -25.972000 -28.694901
rhumerus -30.018900 -40.030800 19.301600
lowerneck -7.436560 5.623210 10.106000
lhand -5.012440 16.458500
ltibia 23.287300
head 3.530960 3.443040 -2.353420
rwrist -20.651501
lfingers 7.125020
rtoes 30.566299
lowerback -0.597351 3.578770 17.016701
rfingers 7.125020
lclavicle 0.000000 -0.000000
upperneck 5.147440 6.695390 -2.789580
rfemur 23.141800 2.015010 4.202370
thorax -5.119220 2.681750 -3.333010
rclavicle 0.000000 -0.000000
rtibia 12.897100
lfoot -26.572500 38.470600
lhumerus -20.781799 53.985199 -16.915800
rthumb 0.572788 -58.673901
root -8.584730 20.168400 14.539700 -96.397797 57.422600 -124.430000
ltoes 22.439600
lfemur -35.504700 -26.751699 13.499300
2
upperback -5.252300 3.691820 6.172940
rfoot 28.752800 -33.179199
lradius 26.438400
lthumb 12.212900 52.631802
rradius 27.906300
lwrist 13.447100
rhand -28.712700 -31.910299
rhumerus -28.309299 -41.458302 17.632200
lowerneck -8.321050 2.352450 6.343310
lhand -13.913100 23.008301
ltibia 26.218599
head 3.451780 1.363510 -1.251190
rwrist -18.882900
lfingers 7.125020
rtoes 31.378000
lowerback -1.785680 1.993860 15.228400
rfingers 7.125020
lclavicle -0.000000 -0.000000
upperneck 5.728880 2.500230 -0.810842
rfemur 17.818300 -0.846852 3.512810
thorax -4.183280 1.664760 -2.010550
rclavicle -0.000000 -0.000000
rtibia 23.770399
lfoot -25.419701 20.021099
lhumerus -21.923201 52.426498 -19.591999
rthumb -2.074230 -61.880001
root -8.115150 19.959700 14.346400 -124.464996 48.747700 -144.945007
ltoes 12.659700
lfemur -28.716999 -25.465000 6.215580
3
upperback -4.510300 0.286992 4.305770
rfoot 18.586100 -31.904100
lradius 27.496799
lthumb 4.211080 57.485500
rradius 29.356701
lwrist 10.224200
rhand -31.969299 -35.250599
rhumerus -25.232599 -39.381199 15.445200
lowerneck -7.812590 0.232552 3.726510
lhand -22.204700 27.547300
ltibia 33.204899
head 3.650810 0.065286 -0.808389
rwrist -18.656900
lfingers 7.125020
rtoes 28.509701
lowerback -2.464170 -0.135290 9.438800
rfingers 7.125020
lclavicle 0.000000 -0.000000
upperneck 6.942370 -0.053988 -0.439963
rfemur -2.196290 -6.119210 6.128950
thorax -3.332890 0.081190 -0.812354
rclavicle 0.000000 -0.000000
rtibia 37.315601
lfoot -30.143999 9.093780
lhumerus -23.036100 46.529598 -21.682100
rthumb -5.219100 -65.166397
root -7.104190 19.260900 13.669000 -146.960999 41.949100 -161.740997
ltoes 10.398800
lfemur -19.829201 -27.528500 -7.455280
4
upperback -3.803010 -1.860080 2.252320
rfoot -15.711800 -38.276100
lradius 25.451401
lthumb 0.054296 58.309101
rradius 28.618900
lwrist 5.823350
rhand -30.798901 -34.023399
rhumerus -32.498199 -34.397999 16.844101
lowerneck -7.685740 -0.479467 2.880090
lhand -26.508801 28.329300
ltibia 28.190701
head 2.893420 -0.405977 -0.614571
rwrist -17.384600
lfingers 7.125020
rtoes 22.195101
lowerback -1.933260 -1.561670 5.724020
rfingers 7.125020
lclavicle -0.000000 0.000000
upperneck 4.883660 -0.923030 -0.207700
rfemur -38.788799 -20.828501 20.354700
thorax -2.958570 -0.978386 -0.868331
rclavicle -0.000000 0.000000
rtibia 45.949501
lfoot -31.390699 6.804020
lhumerus -28.957701 40.532299 -22.897400
rthumb -4.088990 -63.963902
root -5.416830 18.589500 12.387100 -158.645004 37.198799 -170.610001
ltoes 15.271700
lfemur -3.351390 -26.377600 -18.599701
5
upperback -2.414420 -3.368140 1.030050
rfoot 14.524500 -21.905899
lradius 22.573099
lthumb 2.733800 58.522999
rradius 27.980301
lwrist -0.885595
rhand -29.501499 -33.031300
rhumerus -50.258598 -29.210501 9.031250
lowerneck -6.124880 -1.188950 1.444550
lhand -23.734501 28.560801
ltibia 0.000000
head -0.571006 -0.672578 -0.448480
rwrist -15.590200
lfingers 7.125020
rtoes 23.907200
lowerback -1.372090 -2.576090 4.203200
rfingers 7.125020
lclavicle -0.000000 -0.000000
upperneck -5.103040 -1.476020 -0.641705
rfemur -65.484200 -20.194901 33.037601
thorax -1.895940 -1.721790 -1.276080
rclavicle -0.000000 -0.000000
rtibia 38.582401
lfoot -17.848101 -1.583110
lhumerus -47.633900 42.873001 -15.233700
rthumb -2.836070 -62.992199
root -2.864010 17.913601 10.471000 -163.207001 32.605999 -177.682999
ltoes 7.331630
lfemur 20.589399 -19.875601 -21.916901
